<svg width="54" height="46" viewBox="0 0 54 46" fill="none" xmlns="http://www.w3.org/2000/svg">
<path d="M-4.76837e-06 45.12V1.90735e-06H13.44V5.52H6V39.6H13.44V45.12H-4.76837e-06ZM26.6212 40.32C24.3812 40.32 22.4292 39.904 20.7652 39.072C19.1332 38.208 17.8692 37.008 16.9732 35.472C16.1092 33.904 15.6772 32.064 15.6772 29.952V14.688C15.6772 12.576 16.1092 10.752 16.9732 9.216C17.8692 7.648 19.1332 6.448 20.7652 5.616C22.4292 4.752 24.3812 4.32 26.6212 4.32C28.8932 4.32 30.8452 4.752 32.4772 5.616C34.1092 6.448 35.3572 7.648 36.2212 9.216C37.1172 10.752 37.5652 12.56 37.5652 14.64V29.952C37.5652 32.064 37.1172 33.904 36.2212 35.472C35.3572 37.008 34.1092 38.208 32.4772 39.072C30.8452 39.904 28.8932 40.32 26.6212 40.32ZM26.6212 35.04C28.2532 35.04 29.4852 34.608 30.3172 33.744C31.1492 32.848 31.5652 31.584 31.5652 29.952V14.688C31.5652 13.024 31.1492 11.76 30.3172 10.896C29.4852 10.032 28.2532 9.6 26.6212 9.6C24.9892 9.6 23.7572 10.032 22.9252 10.896C22.0932 11.76 21.6772 13.024 21.6772 14.688V29.952C21.6772 31.584 22.0932 32.848 22.9252 33.744C23.7892 34.608 25.0212 35.04 26.6212 35.04ZM39.8025 45.12V39.6H47.2425V5.52H39.8025V1.90735e-06H53.2425V45.12H39.8025Z" fill="#39FF88"/>
</svg>
